<svg width="300" height="22" viewBox="0 0 300 22" fill="none" xmlns="http://www.w3.org/2000/svg">
<path d="M294.414 17.1111H300.001V21.6944H294.414V17.1111Z" fill="white"/>
<path d="M277.19 21.6946H271.138L279.362 0.305664H285.569L293.794 21.6946H287.742L286.345 17.8751H278.586L277.19 21.6946ZM279.983 13.9029H284.949L282.466 6.72233L279.983 13.9029Z" fill="white"/>
<path d="M268.196 0C268.713 0 269.644 0.101852 270.989 0.305555V4.43056H269.747C269.437 4.43056 269.158 4.53241 268.909 4.73611C268.661 4.91945 268.475 5.12315 268.351 5.34722L265.402 10.8472L271.454 21.6944H265.557L260.747 12.9861H257.954V21.6944H252.367V0.305555H257.954V8.70833H260.747L263.85 2.90278C264.306 2.04722 264.864 1.35463 265.526 0.825C266.209 0.275 267.099 0 268.196 0Z" fill="white"/>
<path d="M243.054 14.6668C240.571 14.8705 238.222 14.9723 236.008 14.9723C233.815 14.9723 232.243 14.5038 231.291 13.5668C230.339 12.6297 229.863 11.1631 229.863 9.16678V0.305664H235.45V9.16678C235.45 9.63529 235.584 10.0121 235.853 10.2973C236.143 10.5621 236.526 10.6946 237.002 10.6946C238.698 10.6946 240.716 10.5927 243.054 10.389V0.305664H248.64V21.6946H243.054V14.6668Z" fill="white"/>
<path d="M223.332 6.11111C223.332 4.88889 222.711 4.27778 221.47 4.27778H216.194C214.952 4.27778 214.332 4.88889 214.332 6.11111V15.8889C214.332 17.1111 214.952 17.7222 216.194 17.7222H221.47C222.711 17.7222 223.332 17.1111 223.332 15.8889V6.11111ZM228.918 15.8889C228.918 18.0278 228.422 19.5861 227.429 20.5639C226.456 21.5213 224.884 22 222.711 22H214.952C212.78 22 211.197 21.5213 210.204 20.5639C209.231 19.5861 208.745 18.0278 208.745 15.8889V6.11111C208.745 3.97222 209.231 2.42407 210.204 1.46667C211.197 0.488889 212.78 0 214.952 0H222.711C224.884 0 226.456 0.488889 227.429 1.46667C228.422 2.42407 228.918 3.97222 228.918 6.11111V15.8889Z" fill="white"/>
<path d="M202.223 21.6946H196.637V4.58344H190.119V0.305664H208.741V4.58344H202.223V21.6946Z" fill="white"/>
<path d="M178.627 21.6946H173.041V8.55567L165.592 21.6946H159.695V0.305664H165.282V13.4446L172.73 0.305664H178.627V21.6946Z" fill="white"/>
<path d="M133.941 12.9861V9.01392H156.908V12.9861H133.941Z" fill="white"/>
<path d="M109.727 7.639H116.865C119.038 7.639 120.61 8.12789 121.583 9.10566C122.576 10.0631 123.073 11.6112 123.073 13.7501V15.5834C123.073 17.7223 122.576 19.2807 121.583 20.2584C120.61 21.2158 119.038 21.6946 116.865 21.6946H104.141V0.305664H109.727V7.639ZM131.142 21.6946H125.555V0.305664H131.142V21.6946ZM117.486 13.7501C117.486 12.5279 116.865 11.9168 115.624 11.9168H109.727V17.4168H115.624C116.865 17.4168 117.486 16.8057 117.486 15.5834V13.7501Z" fill="white"/>
<path d="M101.654 21.389C97.0396 21.7964 93.2118 22.0001 90.1703 22.0001C88.1426 22.0001 86.6529 21.5316 85.7011 20.5946C84.7493 19.6575 84.2734 18.1908 84.2734 16.1946V6.41678C84.2734 4.27789 84.7597 2.72974 85.7321 1.77233C86.7253 0.794553 88.3081 0.305664 90.4806 0.305664H101.654V4.58344H91.7221C90.4806 4.58344 89.8599 5.19455 89.8599 6.41678V16.1946C89.8599 16.6631 89.9944 17.0399 90.2634 17.3251C90.553 17.5899 90.9151 17.7223 91.3496 17.7223C91.7841 17.7223 92.26 17.7223 92.7773 17.7223C93.2946 17.702 93.8325 17.6816 94.3912 17.6612C94.9498 17.6409 95.5085 17.6205 96.0671 17.6001C96.6464 17.5797 97.381 17.539 98.2706 17.4779C99.181 17.4168 100.309 17.3455 101.654 17.264V21.389Z" fill="white"/>
<path d="M82.4075 21.389C77.7935 21.7964 73.9657 22.0001 70.9242 22.0001C68.8965 22.0001 67.4068 21.5316 66.455 20.5946C65.5032 19.6575 65.0273 18.1908 65.0273 16.1946V6.41678C65.0273 4.27789 65.5136 2.72974 66.486 1.77233C67.4792 0.794553 69.062 0.305664 71.2345 0.305664H82.4075V4.58344H72.476C71.2345 4.58344 70.6138 5.19455 70.6138 6.41678V16.1946C70.6138 16.6631 70.7483 17.0399 71.0173 17.3251C71.307 17.5899 71.669 17.7223 72.1035 17.7223C72.538 17.7223 73.0139 17.7223 73.5312 17.7223C74.0485 17.702 74.5864 17.6816 75.1451 17.6612C75.7037 17.6409 76.2624 17.6205 76.821 17.6001C77.4003 17.5797 78.1349 17.539 79.0246 17.4779C79.9349 17.4168 81.0626 17.3455 82.4075 17.264V21.389Z" fill="white"/>
<path d="M56.9433 6.11111C56.9433 4.88889 56.3226 4.27778 55.0812 4.27778H49.8051C48.5636 4.27778 47.9429 4.88889 47.9429 6.11111V15.8889C47.9429 17.1111 48.5636 17.7222 49.8051 17.7222H55.0812C56.3226 17.7222 56.9433 17.1111 56.9433 15.8889V6.11111ZM62.5298 15.8889C62.5298 18.0278 62.0332 19.5861 61.0401 20.5639C60.0676 21.5213 58.4951 22 56.3226 22H48.5636C46.3911 22 44.8083 21.5213 43.8151 20.5639C42.8427 19.5861 42.3564 18.0278 42.3564 15.8889V6.11111C42.3564 3.97222 42.8427 2.42407 43.8151 1.46667C44.8083 0.488889 46.3911 0 48.5636 0H56.3226C58.4951 0 60.0676 0.488889 61.0401 1.46667C62.0332 2.42407 62.5298 3.97222 62.5298 6.11111V15.8889Z" fill="white"/>
<path d="M20.9434 0.305664H33.9785C36.151 0.305664 37.7235 0.794553 38.6959 1.77233C39.6891 2.72974 40.1856 4.27789 40.1856 6.41678V9.47233C40.1856 11.6112 39.6891 13.1696 38.6959 14.1473C37.7235 15.1047 36.151 15.5834 33.9785 15.5834H26.5298V21.6946H20.9434V0.305664ZM34.5992 6.41678C34.5992 5.19455 33.9785 4.58344 32.737 4.58344H26.5298V11.3057H32.737C33.9785 11.3057 34.5992 10.6946 34.5992 9.47233V6.41678Z" fill="white"/>
<path d="M15.8283 0C16.3456 0 17.2767 0.101852 18.6216 0.305555V4.43056H17.3801C17.0698 4.43056 16.7904 4.53241 16.5422 4.73611C16.2939 4.91945 16.1077 5.12315 15.9835 5.34722L13.0351 10.8472L19.0871 21.6944H13.1903L8.37971 12.9861H5.58647V21.6944H0V0.305555H5.58647V8.70833H8.37971L11.4833 2.90278C11.9385 2.04722 12.4971 1.35463 13.1592 0.825C13.842 0.275 14.7317 0 15.8283 0Z" fill="white"/>
</svg>
